<?xml version="1.0" encoding="UTF-8" standalone="no"?>
<!-- Created with Inkscape (http://www.inkscape.org/) -->

<svg
   width="300"
   height="300"
   viewBox="0 0 79.375 79.375"
   version="1.1"
   id="svg5"
   sodipodi:docname="Metropolis_30_flat.svg"
   inkscape:version="1.1 (c68e22c387, 2021-05-23)"
   xmlns:inkscape="http://www.inkscape.org/namespaces/inkscape"
   xmlns:sodipodi="http://sodipodi.sourceforge.net/DTD/sodipodi-0.dtd"
   xmlns="http://www.w3.org/2000/svg"
   xmlns:svg="http://www.w3.org/2000/svg">
  <sodipodi:namedview
     id="namedview14"
     pagecolor="#ffffff"
     bordercolor="#666666"
     borderopacity="1.0"
     inkscape:pageshadow="2"
     inkscape:pageopacity="0.0"
     inkscape:pagecheckerboard="0"
     showgrid="false"
     inkscape:zoom="1.3866667"
     inkscape:rotation="-90"
     inkscape:cx="169.83173"
     inkscape:cy="141.70673"
     inkscape:window-width="1920"
     inkscape:window-height="1017"
     inkscape:window-x="-8"
     inkscape:window-y="-8"
     inkscape:window-maximized="1"
     inkscape:current-layer="svg5" />
  <defs
     id="defs2" />
  <g
     id="layer5"
     style="display:inline"
     transform="rotate(-90,39.917987,39.67906)">
    <rect
       style="fill:#aaeeff;stroke-width:0.255784"
       id="rect5390"
       width="79.369949"
       height="79.486137"
       x="-0.035188138"
       y="-79.660622"
       transform="rotate(90)" />
    <path
       style="fill:#d7eef4;stroke-width:0.176738"
       d="M 45.40878,0.67662232 C 45.660164,1.1765585 54.096649,16.403048 60.352872,27.648288 c 0.86109,1.547764 1.527184,2.876936 1.48021,2.953715 -0.04698,0.07678 -2.307593,0.14962 -5.023595,0.161867 -4.335892,0.01955 -4.938031,0.05558 -4.936952,0.295362 0.0024,0.512509 10.029078,45.884012 10.260315,46.428316 0.110949,0.26116 0.339282,-0.451464 0.879027,-2.743433 1.19419,-5.070988 11.299714,-50.628284 15.627164,-70.4497176 0.503642,-2.3068769 0.921624,-4.17778523 0.928849,-4.15757402 0.0072,0.0202112 0.0084,10.89301162 0.0025,24.16177962 -0.0058,13.268768 0.01228,31.074806 0.04025,39.568973 l 0.05085,15.443941 -17.541574,-0.03263 c -9.647866,-0.01794 -27.511,-0.03831 -39.695854,-0.04526 L 0.26981921,79.221003 0.24661525,45.178407 C 0.23383588,26.45498 0.26214629,8.9324053 0.30951465,6.2393539 L 0.39562065,1.3428866 5.241848,22.919017 c 4.6745471,20.811775 12.074916,53.615994 12.291586,54.485909 0.05971,0.239745 0.16976,0.354016 0.254207,0.263965 0.173712,-0.185235 1.349623,-5.269916 6.746922,-29.173871 2.175113,-9.633291 3.920268,-17.554686 3.878122,-17.603099 -0.04215,-0.04841 -2.685557,-0.116028 -5.87425,-0.150252 L 16.740814,30.679439 24.253663,18.29803 C 28.385727,11.488258 32.540812,4.6127218 33.487182,3.0190634 l 1.720675,-2.89755929 4.948606,-0.02443533 4.948602,-0.02443533 0.303715,0.60400323 z"
       id="path6220" />
  </g>
  <g
     id="layer1"
     style="display:none">
    <path
       style="fill:none;stroke:#000000;stroke-width:0.264583px;stroke-linecap:butt;stroke-linejoin:miter;stroke-opacity:1"
       d="M 0.17593927,-0.17753317 79.242024,17.290462 0.12617958,34.77179 Z"
       id="path348" />
  </g>
  <g
     id="layer2"
     style="display:none">
    <path
       style="fill:none;stroke:#000000;stroke-width:0.264583px;stroke-linecap:butt;stroke-linejoin:miter;stroke-opacity:1"
       d="M 0.09392182,79.620863 79.330894,61.804949 0.15102708,44.004338 Z"
       id="path351" />
  </g>
  <g
     id="layer3"
     style="display:inline"
     transform="rotate(-90,39.917987,39.67906)">
    <path
       style="fill:#008000;stroke-width:0.472338"
       d="M 1.2662848,57.438464 C 1.3338875,26.163684 1.44892,0.51752937 1.5219143,0.44700971 1.5949133,0.37648999 67.780081,14.929475 148.60007,32.786976 248.99949,54.970631 295.20347,65.366688 294.4657,65.607253 293.12371,66.044827 118.73816,104.56076 118.08564,104.5637 c -0.30839,0.001 -0.50371,-6.760712 -0.56077,-19.414044 -0.0825,-18.296623 -0.13513,-19.397812 -0.91271,-19.097675 C 116.04064,66.272577 6.4113203,127.10803 1.4127062,129.9784 1.2183682,130.09 1.0782679,126.60839 1.1013706,122.2415 1.1244734,117.87461 1.1986869,88.713243 1.2662848,57.438464 Z"
       id="path1068"
       transform="scale(0.26458333)" />
    <path
       style="fill:#008000;stroke-width:0.472338"
       d="m 1.1437397,230.98596 c 0.073873,-34.54355 0.2053779,-62.87817 0.2922338,-62.96581 0.086861,-0.0876 26.2382995,15.6761 58.1143205,35.03054 l 57.956396,35.18989 0.0213,-22.48581 c 0.0167,-17.65127 0.14746,-22.44095 0.60806,-22.27715 0.32271,0.11476 40.42238,9.14885 89.11036,20.07575 54.85433,12.31079 88.21443,20.00289 87.71071,20.22414 -0.44709,0.19638 -65.89476,14.98388 -145.43927,32.86112 C 69.973348,284.51586 3.9890666,299.35116 2.8861152,299.60595 l -2.00536617,0.46325 0.0643373,-3.1384 C 0.9804749,295.20469 1.0698671,265.52951 1.1437397,230.98596 Z"
       id="path1107"
       transform="scale(0.26458333)" />
  </g>
</svg>
